# xmcd
# 
# Track frame offsets:
#     150
#     14247
#     26555
#     43027
#     61037
#     72632
#     81915
#     94540
#     105605
#     119235
#     132400
#     148167
#     161890
#     175502
#     188482
# 
# Disc length: 2667
# 
# Revision: 11
# Processed by: cddbd v1.5.2PL0 Copyright (c) Steve Scherf et al.
# Submitted via: fre:ac v1.0.31
# 
DISCID=d80a690f
DTITLE=Various Artist - Classic Country - TL 626-04 - 1970 - 1974 - CD 1
DYEAR=1999
DGENRE=Country
TTITLE0=Dolly Parton - I will always love you
TTITLE1=Charlie Rich - The most beautiful girl
TTITLE2=Olivia Newton-John - I honestly love you
TTITLE3=Billy Swan - I can help
TTITLE4=Sammi Smith - Help me make it through the night
TTITLE5=Charley Pride - Kiss an angel good mornin'
TTITLE6=Donna Fargo - Funny face
TTITLE7=Statler Brothers - Bed of roses
TTITLE8=Conway Twitty - You've never been this far before
TTITLE9=Tanya Tucker - Delta dawn
TTITLE10=Kris Kristofferson - Why me
TTITLE11=B.J. Thomas - Raindrops keep fallin' on my head
TTITLE12=Loretta Lynn - Coal miner's daughter
TTITLE13=Faron Young - It's four in the morning
TTITLE14=Johnny Cash - A thing called love
EXTD=TIME LIFE MUSIC
EXTT0=Rev. #6 submitted by cbs3000 on Dec., 17, 2004
EXTT1=
EXTT2=
EXTT3=
EXTT4=
EXTT5=
EXTT6=
EXTT7=
EXTT8=
EXTT9=
EXTT10=
EXTT11=
EXTT12=
EXTT13=
EXTT14=
PLAYORDER=
